<svg id="Layer_1" data-name="Layer 1" xmlns="http://www.w3.org/2000/svg" viewBox="0 0 60 60"><defs><style>.cls-1{fill:orange;}.cls-2{fill:#fff;}</style></defs><title>stack</title><rect class="cls-1" width="60" height="60"/><path class="cls-2" d="M1555.22,558h29.52V545.45H1589v16.68h-38V545.47h4.22Z" transform="translate(-1541 -508.5)"/><path class="cls-2" d="M1581.4,544.35l-.84,4.14-20.67-4.33.86-4.13Z" transform="translate(-1541 -508.5)"/><path class="cls-2" d="M1583.5,539.42l-1.75,3.8-19.13-8.92,1.75-3.85Z" transform="translate(-1541 -508.5)"/><path class="cls-2" d="M1587.64,534.35l-12.58-17,3.37-2.51,12.57,17Z" transform="translate(-1541 -508.5)"/><path class="cls-2" d="M1567.93,524.87l2.68-3.19,16.24,13.51-2.66,3.2Z" transform="translate(-1541 -508.5)"/><path class="cls-2" d="M1559.48,553.68v-4h21v4Z" transform="translate(-1541 -508.5)"/></svg>